Coordinates
version=1
nRows=5
nColumns=40
inDegrees=yes

Units are S.I. units (second, meters, Newtons, ...)
Angles are in degrees.

endheader
time	pelvis_tilt	pelvis_list	pelvis_rotation	pelvis_tx	pelvis_ty	pelvis_tz	hip_flexion_r	hip_adduction_r	hip_rotation_r	knee_angle_r	knee_angle_r_beta	ankle_angle_r	subtalar_angle_r	mtp_angle_r	hip_flexion_l	hip_adduction_l	hip_rotation_l	knee_angle_l	knee_angle_l_beta	ankle_angle_l	subtalar_angle_l	mtp_angle_l	lumbar_extension	lumbar_bending	lumbar_rotation	arm_flex_r	arm_add_r	arm_rot_r	elbow_flex_r	pro_sup_r	wrist_flex_r	wrist_dev_r	arm_flex_l	arm_add_l	arm_rot_l	elbow_flex_l	pro_sup_l	wrist_flex_l	wrist_dev_l
     54.35000000	     -2.38135706	     -3.93053852	      7.83003124	      1.13283266	      0.91089260	      0.55353870	     15.54577100	      4.29514410	    -10.32959533	     31.10945499	     31.10945499	     19.10099527	    -13.01026662	     -0.22611452	     33.74514822	    -14.68567199	      6.56040058	     65.95757642	     65.95757642	      4.17069467	    -18.70496263	      8.87383717	    -11.84869379	      4.68415898	      1.13573472	     28.55901932	    -22.54414642	     -8.26589484	     52.85178678	     45.63871147	      0.00000000	      0.00000000	     -4.02176809	     -8.01681076	      2.63933464	     22.96433982	     45.89942542	      0.00000000	      0.00000000
     54.37057143	     -2.50939863	     -3.83729799	      8.64978833	      1.13167115	      0.91130443	      0.55370091	     15.25249151	      4.19405212	    -10.82507196	     30.72383501	     30.72383501	     19.18701537	    -13.25669411	     -0.10601351	     34.73142316	    -14.18529403	      6.80631171	     64.39536620	     64.39536620	      4.84301237	    -18.76989026	      9.01530334	    -11.72846631	      4.48903776	      2.06398537	     30.46217714	    -23.56363661	     -8.63839035	     53.56449302	     45.64053363	      0.00000000	      0.00000000	     -6.04244247	     -7.92788547	      2.70768040	     22.35610378	     45.84335077	      0.00000000	      0.00000000
     54.39114286	     -2.62599707	     -3.79848599	      9.53195298	      1.13046613	      0.91246861	      0.55340848	     14.66841496	      4.12950641	    -11.51745508	     29.80519847	     29.80519847	     19.07947883	    -13.20092478	     -0.04918198	     35.48124868	    -13.50827546	      7.29219843	     62.18874558	     62.18874558	      6.20731531	    -18.68844799	     11.19147896	    -11.70976597	      4.43967528	      1.71340719	     33.36670698	    -23.17956083	     -9.48849728	     54.76096195	     45.64145657	      0.00000000	      0.00000000	     -9.75848888	     -8.49945359	      5.75016319	     25.01816664	     45.07682313	      0.00000000	      0.00000000
     54.41171429	     -3.01875392	     -3.63435115	     10.31475035	      1.12906651	      0.91380985	      0.55279589	     14.32160873	      3.89691496	    -12.05244637	     28.79403676	     28.79403676	     18.90434456	    -13.15496011	      0.18977320	     36.08981057	    -12.73265006	      7.50801779	     59.14193801	     59.14193801	      6.68269520	    -18.51095140	     11.20148788	    -11.32405376	      4.21315262	      2.40351947	     35.53485718	    -24.11593013	     -9.77073269	     55.74983259	     45.63058019	      0.00000000	      0.00000000	    -11.59989380	     -8.38563109	      5.94719631	     24.46405968	     45.00834161	      0.00000000	      0.00000000
     54.43228571	     -3.19902132	     -3.55756407	     11.08347239	      1.12792892	      0.91597598	      0.55205975	     13.48812463	      3.79769205	    -12.82549762	     27.31613277	     27.31613277	     18.63290001	    -12.65537255	      0.36801163	     36.04498189	    -12.05352454	      7.82687878	     55.30201649	     55.30201649	      7.02236608	    -18.31531099	     10.95264807	    -11.25400371	      4.05475493	      2.62907918	     37.78248753	    -24.31893643	     -9.90241024	     57.27221626	     45.59396229	      0.00000000	      0.00000000	    -13.54859739	     -8.29038808	      6.35492132	     24.28815701	     44.89284870	      0.00000000	      0.00000000
